<svg width="31" height="35" viewBox="0 0 31 35" fill="none" xmlns="http://www.w3.org/2000/svg">
<path d="M15.4989 10.832C11.8216 10.832 8.83008 13.8236 8.83008 17.5005C8.83008 21.1778 11.8216 24.1693 15.4989 24.1693C19.1758 24.1693 22.1674 21.1778 22.1674 17.5005C22.1674 13.8236 19.1758 10.832 15.4989 10.832ZM19.4581 16.2447L14.6807 21.0221C14.4801 21.2227 14.2171 21.3231 13.9544 21.3231C13.6916 21.3231 13.4288 21.2229 13.2283 21.0221L11.4026 19.1964C11.0016 18.7956 11.0016 18.1454 11.4026 17.7443C11.8034 17.3433 12.4537 17.3433 12.8547 17.7443L13.9544 18.844L18.006 14.7926C18.4068 14.3915 19.057 14.3915 19.4581 14.7926C19.8592 15.1934 19.8592 15.8436 19.4581 16.2447Z" fill="white"/>
<path d="M30.3673 9.49639L30.3662 9.46915C30.351 9.13296 30.3408 8.77728 30.3347 8.38154C30.3061 6.45173 28.772 4.85544 26.842 4.74756C22.8178 4.52299 19.7048 3.21081 17.045 0.618237L17.0223 0.596607C16.1547 -0.198869 14.846 -0.198869 13.9782 0.596607L13.9555 0.618237C11.2956 3.21081 8.18258 4.52299 4.15846 4.74783C2.22865 4.85544 0.694308 6.45173 0.665736 8.38181C0.659861 8.77488 0.649447 9.13056 0.634227 9.46915L0.632624 9.53244C0.554385 13.6359 0.457187 18.7428 2.16563 23.3781C3.10504 25.9272 4.52776 28.143 6.39402 29.9644C8.51956 32.0386 11.3036 33.6854 14.6687 34.8587C14.7782 34.8969 14.8919 34.9279 15.0078 34.9511C15.1712 34.9837 15.3357 35 15.5002 35C15.6647 35 15.8295 34.9837 15.9926 34.9511C16.1085 34.9279 16.2231 34.8966 16.3331 34.8582C19.6942 33.6827 22.4753 32.0352 24.5989 29.9612C26.4644 28.1392 27.8871 25.9229 28.8273 23.3733C30.5422 18.7241 30.4452 13.6076 30.3673 9.49639ZM15.4997 26.223C10.69 26.223 6.77721 22.3103 6.77721 17.5006C6.77721 12.6908 10.69 8.77808 15.4997 8.77808C20.3091 8.77808 24.2221 12.6908 24.2221 17.5006C24.2221 22.3103 20.3091 26.223 15.4997 26.223Z" fill="white"/>
</svg>
